<svg xmlns="http://www.w3.org/2000/svg" xmlns:xlink="http://www.w3.org/1999/xlink" width="1495" zoomAndPan="magnify" viewBox="0 0 1121.25 320.999992" height="428" preserveAspectRatio="xMidYMid meet" version="1.0"><defs><g/></defs><g fill="#6c3baa" fill-opacity="1"><g transform="translate(93.454509, 210.154864)"><g><path d="M 12.453125 -102.53125 L 30.375 -102.53125 L 30.375 0 L 12.453125 0 Z M 12.453125 -102.53125 "/></g></g></g><g fill="#6c3baa" fill-opacity="1"><g transform="translate(136.135767, 210.154864)"><g><path d="M 30.21875 -81.109375 L 30.21875 0 L 12.296875 0 L 12.296875 -82.015625 C 12.296875 -88.703125 14.21875 -94.09375 18.0625 -98.1875 C 21.914062 -102.289062 27.84375 -104.34375 35.84375 -104.34375 C 43.03125 -104.34375 48.445312 -102.644531 52.09375 -99.25 C 55.738281 -95.863281 58.625 -91.234375 60.75 -85.359375 L 90.671875 -19.890625 C 91.285156 -18.679688 92.125 -17.671875 93.1875 -16.859375 C 94.25 -16.046875 95.585938 -15.640625 97.203125 -15.640625 C 99.128906 -15.640625 100.625 -16.171875 101.6875 -17.234375 C 102.75 -18.296875 103.28125 -19.691406 103.28125 -21.421875 L 103.28125 -102.53125 L 121.359375 -102.53125 L 121.359375 -20.65625 C 121.359375 -13.875 119.410156 -8.429688 115.515625 -4.328125 C 111.617188 -0.222656 105.71875 1.828125 97.8125 1.828125 C 90.726562 1.828125 85.3125 0.128906 81.5625 -3.265625 C 77.8125 -6.660156 74.875 -11.289062 72.75 -17.15625 L 42.828125 -82.625 C 41.515625 -85.5625 39.390625 -87.03125 36.453125 -87.03125 C 32.296875 -87.03125 30.21875 -85.054688 30.21875 -81.109375 Z M 30.21875 -81.109375 "/></g></g></g><g fill="#6c3baa" fill-opacity="1"><g transform="translate(269.6476, 210.154864)"><g><path d="M 4.40625 -102.53125 L 82.328125 -102.53125 L 82.328125 -84.609375 L 52.40625 -84.609375 L 52.40625 0 L 34.328125 0 L 34.328125 -84.609375 L 4.40625 -84.609375 Z M 4.40625 -102.53125 "/></g></g></g><g fill="#6c3baa" fill-opacity="1"><g transform="translate(356.377136, 210.154864)"><g><path d="M 12.15625 -102.53125 L 67.75 -102.53125 C 75.4375 -102.53125 81.710938 -101.109375 86.578125 -98.265625 C 91.441406 -95.429688 95.007812 -91.6875 97.28125 -87.03125 C 99.5625 -82.375 100.703125 -77.3125 100.703125 -71.84375 C 100.703125 -67.59375 99.96875 -63.390625 98.5 -59.234375 C 97.03125 -55.085938 94.722656 -51.390625 91.578125 -48.140625 C 88.441406 -44.898438 84.242188 -42.523438 78.984375 -41.015625 L 102.828125 0 L 82.9375 0 L 59.546875 -39.640625 L 32.8125 -39.640625 C 31.082031 -39.640625 30.21875 -38.78125 30.21875 -37.0625 L 30.21875 0 L 12.296875 0 L 12.296875 -40.5625 C 12.296875 -46.332031 13.585938 -50.484375 16.171875 -53.015625 C 18.753906 -55.546875 22.832031 -56.8125 28.40625 -56.8125 L 68.34375 -56.8125 C 73.40625 -56.8125 77.050781 -58.273438 79.28125 -61.203125 C 81.507812 -64.140625 82.625 -67.429688 82.625 -71.078125 C 82.625 -74.722656 81.484375 -77.890625 79.203125 -80.578125 C 76.929688 -83.265625 73.3125 -84.609375 68.34375 -84.609375 L 12.15625 -84.609375 Z M 12.15625 -102.53125 "/></g></g></g><g fill="#6c3baa" fill-opacity="1"><g transform="translate(464.827012, 210.154864)"><g><path d="M 55.140625 -82.46875 L 22.625 0 L 2.890625 0 L 38.890625 -91.140625 C 40.804688 -95.890625 43.535156 -99.273438 47.078125 -101.296875 C 50.628906 -103.328125 55.085938 -104.34375 60.453125 -104.34375 C 65.816406 -104.34375 70.242188 -103.328125 73.734375 -101.296875 C 77.234375 -99.273438 79.894531 -95.890625 81.71875 -91.140625 L 116.34375 0 L 96.453125 0 L 65.3125 -82.46875 C 64.40625 -84.800781 62.734375 -85.96875 60.296875 -85.96875 C 57.867188 -85.96875 56.148438 -84.800781 55.140625 -82.46875 Z M 55.140625 -82.46875 "/></g></g></g><g fill="#65b338" fill-opacity="1"><g transform="translate(583.919388, 210.154864)"><g><path d="M 54.984375 -102.53125 L 94.625 -102.53125 L 94.625 -84.609375 L 54.984375 -84.609375 C 45.160156 -84.609375 37.96875 -81.972656 33.40625 -76.703125 C 28.851562 -71.441406 26.578125 -62.9375 26.578125 -51.1875 C 26.578125 -39.539062 28.828125 -31.082031 33.328125 -25.8125 C 37.835938 -20.550781 45.054688 -17.921875 54.984375 -17.921875 L 94.625 -17.921875 L 94.625 0 L 54.984375 0 C 39.992188 0 28.523438 -4.25 20.578125 -12.75 C 12.628906 -21.257812 8.65625 -34.070312 8.65625 -51.1875 C 8.65625 -68.40625 12.65625 -81.265625 20.65625 -89.765625 C 28.65625 -98.273438 40.097656 -102.53125 54.984375 -102.53125 Z M 54.984375 -102.53125 "/></g></g></g><g fill="#65b338" fill-opacity="1"><g transform="translate(687.508776, 210.154864)"><g><path d="M 55.140625 -82.46875 L 22.625 0 L 2.890625 0 L 38.890625 -91.140625 C 40.804688 -95.890625 43.535156 -99.273438 47.078125 -101.296875 C 50.628906 -103.328125 55.085938 -104.34375 60.453125 -104.34375 C 65.816406 -104.34375 70.242188 -103.328125 73.734375 -101.296875 C 77.234375 -99.273438 79.894531 -95.890625 81.71875 -91.140625 L 116.34375 0 L 96.453125 0 L 65.3125 -82.46875 C 64.40625 -84.800781 62.734375 -85.96875 60.296875 -85.96875 C 57.867188 -85.96875 56.148438 -84.800781 55.140625 -82.46875 Z M 55.140625 -82.46875 "/></g></g></g><g fill="#65b338" fill-opacity="1"><g transform="translate(806.591021, 210.154864)"><g><path d="M 12.15625 -102.53125 L 67.75 -102.53125 C 75.4375 -102.53125 81.710938 -101.109375 86.578125 -98.265625 C 91.441406 -95.429688 95.007812 -91.6875 97.28125 -87.03125 C 99.5625 -82.375 100.703125 -77.3125 100.703125 -71.84375 C 100.703125 -67.59375 99.96875 -63.390625 98.5 -59.234375 C 97.03125 -55.085938 94.722656 -51.390625 91.578125 -48.140625 C 88.441406 -44.898438 84.242188 -42.523438 78.984375 -41.015625 L 102.828125 0 L 82.9375 0 L 59.546875 -39.640625 L 32.8125 -39.640625 C 31.082031 -39.640625 30.21875 -38.78125 30.21875 -37.0625 L 30.21875 0 L 12.296875 0 L 12.296875 -40.5625 C 12.296875 -46.332031 13.585938 -50.484375 16.171875 -53.015625 C 18.753906 -55.546875 22.832031 -56.8125 28.40625 -56.8125 L 68.34375 -56.8125 C 73.40625 -56.8125 77.050781 -58.273438 79.28125 -61.203125 C 81.507812 -64.140625 82.625 -67.429688 82.625 -71.078125 C 82.625 -74.722656 81.484375 -77.890625 79.203125 -80.578125 C 76.929688 -83.265625 73.3125 -84.609375 68.34375 -84.609375 L 12.15625 -84.609375 Z M 12.15625 -102.53125 "/></g></g></g><g fill="#65b338" fill-opacity="1"><g transform="translate(915.04092, 210.154864)"><g><path d="M 20.953125 -102.53125 L 57.109375 -102.53125 C 72.097656 -102.53125 83.539062 -98.300781 91.4375 -89.84375 C 99.332031 -81.382812 103.28125 -68.5 103.28125 -51.1875 C 103.28125 -33.96875 99.359375 -21.128906 91.515625 -12.671875 C 83.671875 -4.222656 72.203125 0 57.109375 0 L 20.953125 0 C 15.285156 0 12.453125 -2.785156 12.453125 -8.359375 L 12.453125 -94.171875 C 12.453125 -99.742188 15.285156 -102.53125 20.953125 -102.53125 Z M 30.375 -82.78125 L 30.375 -19.75 C 30.375 -18.53125 31.035156 -17.921875 32.359375 -17.921875 L 57.109375 -17.921875 C 67.035156 -17.921875 74.222656 -20.550781 78.671875 -25.8125 C 83.128906 -31.082031 85.359375 -39.59375 85.359375 -51.34375 C 85.359375 -63.082031 83.128906 -71.5625 78.671875 -76.78125 C 74.222656 -82 67.035156 -84.609375 57.109375 -84.609375 L 32.359375 -84.609375 C 31.035156 -84.609375 30.375 -84 30.375 -82.78125 Z M 30.375 -82.78125 "/></g></g></g><g fill="#6c3baa" fill-opacity="1"><g transform="translate(370.142065, 241.93363)"><g><path d="M 15.875 -4.75 L 15.875 0 L 2.09375 0 L 2.09375 -23.78125 L 15.875 -23.78125 L 15.875 -19.015625 L 7.34375 -19.015625 L 7.34375 -14.296875 L 15.53125 -14.296875 L 15.53125 -9.546875 L 7.34375 -9.546875 L 7.34375 -4.75 Z M 15.875 -4.75 "/></g></g></g><g fill="#6c3baa" fill-opacity="1"><g transform="translate(388.115977, 241.93363)"><g><path d="M 17.65625 -7.828125 L 17.65625 0 L 12.40625 0 L 12.40625 -8.53125 C 12.40625 -9.28125 12.253906 -9.96875 11.953125 -10.59375 C 11.648438 -11.226562 11.054688 -11.546875 10.171875 -11.546875 C 9.585938 -11.546875 9.082031 -11.328125 8.65625 -10.890625 C 8.226562 -10.460938 7.898438 -9.953125 7.671875 -9.359375 C 7.453125 -8.765625 7.34375 -8.207031 7.34375 -7.6875 L 7.34375 0 L 2.09375 0 L 2.09375 -15.421875 L 7.34375 -15.421875 L 7.34375 -13.53125 C 7.875 -14.207031 8.5 -14.75 9.21875 -15.15625 C 9.945312 -15.5625 10.742188 -15.765625 11.609375 -15.765625 C 12.585938 -15.765625 13.492188 -15.550781 14.328125 -15.125 C 15.171875 -14.695312 15.863281 -14.035156 16.40625 -13.140625 C 17.144531 -14.097656 17.960938 -14.773438 18.859375 -15.171875 C 19.765625 -15.566406 20.820312 -15.765625 22.03125 -15.765625 C 23.382812 -15.765625 24.5 -15.4375 25.375 -14.78125 C 26.25 -14.132812 26.898438 -13.265625 27.328125 -12.171875 C 27.753906 -11.078125 27.96875 -9.863281 27.96875 -8.53125 L 27.96875 0 L 22.734375 0 L 22.734375 -8.53125 C 22.734375 -9.28125 22.582031 -9.96875 22.28125 -10.59375 C 21.976562 -11.226562 21.378906 -11.546875 20.484375 -11.546875 C 19.816406 -11.546875 19.269531 -11.359375 18.84375 -10.984375 C 18.425781 -10.609375 18.125 -10.132812 17.9375 -9.5625 C 17.75 -8.988281 17.65625 -8.410156 17.65625 -7.828125 Z M 17.65625 -7.828125 "/></g></g></g><g fill="#6c3baa" fill-opacity="1"><g transform="translate(417.66454, 241.93363)"><g><path d="M 7.34375 -7.6875 C 7.34375 -7.007812 7.503906 -6.378906 7.828125 -5.796875 C 8.160156 -5.222656 8.597656 -4.753906 9.140625 -4.390625 C 9.691406 -4.023438 10.316406 -3.84375 11.015625 -3.84375 C 11.710938 -3.84375 12.332031 -4.023438 12.875 -4.390625 C 13.425781 -4.753906 13.863281 -5.222656 14.1875 -5.796875 C 14.519531 -6.378906 14.6875 -7.007812 14.6875 -7.6875 C 14.6875 -8.363281 14.519531 -8.992188 14.1875 -9.578125 C 13.863281 -10.160156 13.425781 -10.632812 12.875 -11 C 12.332031 -11.363281 11.710938 -11.546875 11.015625 -11.546875 C 10.316406 -11.546875 9.691406 -11.363281 9.140625 -11 C 8.597656 -10.632812 8.160156 -10.160156 7.828125 -9.578125 C 7.503906 -8.992188 7.34375 -8.363281 7.34375 -7.6875 Z M 7.34375 8.75 L 2.09375 8.75 L 2.09375 -15.421875 L 7.34375 -15.421875 L 7.34375 -13.53125 C 8.019531 -14.375 8.816406 -14.957031 9.734375 -15.28125 C 10.660156 -15.601562 11.625 -15.765625 12.625 -15.765625 C 14.09375 -15.765625 15.398438 -15.382812 16.546875 -14.625 C 17.703125 -13.875 18.613281 -12.882812 19.28125 -11.65625 C 19.945312 -10.4375 20.28125 -9.113281 20.28125 -7.6875 C 20.28125 -6.269531 19.945312 -4.945312 19.28125 -3.71875 C 18.613281 -2.5 17.703125 -1.515625 16.546875 -0.765625 C 15.398438 -0.0234375 14.09375 0.34375 12.625 0.34375 C 11.625 0.34375 10.625 0.175781 9.625 -0.15625 C 8.632812 -0.5 7.875 -1.066406 7.34375 -1.859375 Z M 7.34375 8.75 "/></g></g></g><g fill="#6c3baa" fill-opacity="1"><g transform="translate(439.170299, 241.93363)"><g><path d="M 10.03125 -3.640625 C 10.96875 -3.640625 11.691406 -3.835938 12.203125 -4.234375 C 12.710938 -4.628906 13.070312 -5.132812 13.28125 -5.75 C 13.5 -6.363281 13.609375 -7 13.609375 -7.65625 C 13.609375 -8.3125 13.492188 -8.941406 13.265625 -9.546875 C 13.046875 -10.148438 12.679688 -10.648438 12.171875 -11.046875 C 11.660156 -11.441406 10.945312 -11.640625 10.03125 -11.640625 C 9.125 -11.640625 8.40625 -11.441406 7.875 -11.046875 C 7.351562 -10.648438 6.984375 -10.148438 6.765625 -9.546875 C 6.546875 -8.941406 6.4375 -8.3125 6.4375 -7.65625 C 6.4375 -7 6.539062 -6.363281 6.75 -5.75 C 6.957031 -5.132812 7.320312 -4.628906 7.84375 -4.234375 C 8.375 -3.835938 9.101562 -3.640625 10.03125 -3.640625 Z M 10.03125 -15.734375 C 11.644531 -15.734375 13.113281 -15.394531 14.4375 -14.71875 C 15.769531 -14.039062 16.832031 -13.101562 17.625 -11.90625 C 18.414062 -10.707031 18.8125 -9.300781 18.8125 -7.6875 C 18.8125 -6.0625 18.421875 -4.644531 17.640625 -3.4375 C 16.859375 -2.238281 15.800781 -1.3125 14.46875 -0.65625 C 13.144531 -0.0078125 11.664062 0.3125 10.03125 0.3125 C 8.40625 0.3125 6.921875 -0.0078125 5.578125 -0.65625 C 4.234375 -1.3125 3.171875 -2.238281 2.390625 -3.4375 C 1.609375 -4.644531 1.21875 -6.0625 1.21875 -7.6875 C 1.21875 -9.300781 1.613281 -10.707031 2.40625 -11.90625 C 3.207031 -13.101562 4.273438 -14.039062 5.609375 -14.71875 C 6.953125 -15.394531 8.425781 -15.734375 10.03125 -15.734375 Z M 10.03125 -15.734375 "/></g></g></g><g fill="#6c3baa" fill-opacity="1"><g transform="translate(459.207367, 241.93363)"><g><path d="M 28.078125 -15.421875 L 22.65625 0 L 16.6875 0 L 13.671875 -9.609375 L 10.703125 0 L 4.6875 0 L -0.625 -15.421875 L 5.109375 -15.421875 L 8.25 -5.34375 L 11.640625 -15.421875 L 15.703125 -15.421875 L 19.125 -5.34375 L 22.3125 -15.421875 Z M 28.078125 -15.421875 "/></g></g></g><g fill="#6c3baa" fill-opacity="1"><g transform="translate(486.657801, 241.93363)"><g><path d="M 6.859375 -9.546875 L 13.75 -9.546875 C 13.75 -9.546875 13.71875 -9.691406 13.65625 -9.984375 C 13.59375 -10.273438 13.453125 -10.609375 13.234375 -10.984375 C 13.015625 -11.359375 12.671875 -11.6875 12.203125 -11.96875 C 11.734375 -12.257812 11.101562 -12.40625 10.3125 -12.40625 C 9.5 -12.40625 8.859375 -12.257812 8.390625 -11.96875 C 7.921875 -11.6875 7.578125 -11.359375 7.359375 -10.984375 C 7.140625 -10.609375 7 -10.273438 6.9375 -9.984375 C 6.882812 -9.691406 6.859375 -9.546875 6.859375 -9.546875 Z M 18.78125 -8.046875 C 18.78125 -7.878906 18.773438 -7.710938 18.765625 -7.546875 C 18.753906 -7.390625 18.75 -7.226562 18.75 -7.0625 L 6.78125 -7.0625 C 6.78125 -6.476562 6.914062 -5.898438 7.1875 -5.328125 C 7.457031 -4.753906 7.84375 -4.285156 8.34375 -3.921875 C 8.84375 -3.566406 9.429688 -3.390625 10.109375 -3.390625 C 11.035156 -3.390625 11.765625 -3.640625 12.296875 -4.140625 C 12.835938 -4.640625 13.117188 -5.171875 13.140625 -5.734375 L 18.5 -5.734375 C 18.050781 -3.703125 17.066406 -2.179688 15.546875 -1.171875 C 14.035156 -0.160156 12.253906 0.34375 10.203125 0.34375 C 8.429688 0.34375 6.867188 0.015625 5.515625 -0.640625 C 4.171875 -1.304688 3.117188 -2.238281 2.359375 -3.4375 C 1.597656 -4.644531 1.21875 -6.0625 1.21875 -7.6875 C 1.21875 -9.300781 1.609375 -10.710938 2.390625 -11.921875 C 3.171875 -13.140625 4.238281 -14.082031 5.59375 -14.75 C 6.945312 -15.425781 8.484375 -15.765625 10.203125 -15.765625 C 11.765625 -15.765625 13.191406 -15.460938 14.484375 -14.859375 C 15.785156 -14.253906 16.828125 -13.378906 17.609375 -12.234375 C 18.390625 -11.097656 18.78125 -9.703125 18.78125 -8.046875 Z M 18.78125 -8.046875 "/></g></g></g><g fill="#6c3baa" fill-opacity="1"><g transform="translate(506.659897, 241.93363)"><g><path d="M 10.8125 -11.546875 C 10.15625 -11.546875 9.5625 -11.351562 9.03125 -10.96875 C 8.507812 -10.582031 8.097656 -10.097656 7.796875 -9.515625 C 7.492188 -8.929688 7.34375 -8.320312 7.34375 -7.6875 L 7.34375 0 L 2.09375 0 L 2.09375 -15.421875 L 7.34375 -15.421875 L 7.34375 -13.53125 C 7.738281 -14.113281 8.273438 -14.628906 8.953125 -15.078125 C 9.628906 -15.535156 10.445312 -15.765625 11.40625 -15.765625 C 11.632812 -15.765625 11.898438 -15.734375 12.203125 -15.671875 C 12.503906 -15.617188 12.757812 -15.535156 12.96875 -15.421875 L 12.96875 -10.671875 L 12.90625 -10.671875 C 12.644531 -10.992188 12.328125 -11.21875 11.953125 -11.34375 C 11.585938 -11.476562 11.207031 -11.546875 10.8125 -11.546875 Z M 10.8125 -11.546875 "/></g></g></g><g fill="#6c3baa" fill-opacity="1"><g transform="translate(519.982974, 241.93363)"><g><path d="M 1.8125 -20.703125 C 1.8125 -21.566406 2.109375 -22.296875 2.703125 -22.890625 C 3.304688 -23.484375 4.035156 -23.78125 4.890625 -23.78125 C 5.734375 -23.78125 6.457031 -23.484375 7.0625 -22.890625 C 7.664062 -22.296875 7.96875 -21.566406 7.96875 -20.703125 C 7.96875 -19.859375 7.664062 -19.132812 7.0625 -18.53125 C 6.457031 -17.925781 5.734375 -17.625 4.890625 -17.625 C 4.035156 -17.625 3.304688 -17.925781 2.703125 -18.53125 C 2.109375 -19.132812 1.8125 -19.859375 1.8125 -20.703125 Z M 7.515625 0 L 2.265625 0 L 2.265625 -15.421875 L 7.515625 -15.421875 Z M 7.515625 0 "/></g></g></g><g fill="#6c3baa" fill-opacity="1"><g transform="translate(529.774215, 241.93363)"><g><path d="M 17.875 -8.75 L 17.875 0 L 12.625 0 L 12.625 -8.75 C 12.625 -9.65625 12.4375 -10.347656 12.0625 -10.828125 C 11.6875 -11.304688 11.09375 -11.546875 10.28125 -11.546875 C 9.46875 -11.546875 8.773438 -11.164062 8.203125 -10.40625 C 7.628906 -9.644531 7.34375 -8.738281 7.34375 -7.6875 L 7.34375 0 L 2.09375 0 L 2.09375 -15.421875 L 7.34375 -15.421875 L 7.34375 -13.53125 C 7.875 -14.207031 8.539062 -14.75 9.34375 -15.15625 C 10.15625 -15.5625 11.0625 -15.765625 12.0625 -15.765625 C 14.132812 -15.765625 15.617188 -15.117188 16.515625 -13.828125 C 17.421875 -12.535156 17.875 -10.84375 17.875 -8.75 Z M 17.875 -8.75 "/></g></g></g><g fill="#6c3baa" fill-opacity="1"><g transform="translate(549.216817, 241.93363)"><g><path d="M 10.484375 -3.84375 C 11.191406 -3.84375 11.816406 -4.023438 12.359375 -4.390625 C 12.910156 -4.753906 13.347656 -5.234375 13.671875 -5.828125 C 13.992188 -6.421875 14.15625 -7.054688 14.15625 -7.734375 C 14.15625 -8.410156 13.992188 -9.035156 13.671875 -9.609375 C 13.347656 -10.191406 12.910156 -10.664062 12.359375 -11.03125 C 11.816406 -11.394531 11.191406 -11.578125 10.484375 -11.578125 C 9.785156 -11.578125 9.160156 -11.394531 8.609375 -11.03125 C 8.066406 -10.664062 7.628906 -10.191406 7.296875 -9.609375 C 6.972656 -9.035156 6.8125 -8.410156 6.8125 -7.734375 C 6.8125 -7.054688 6.972656 -6.421875 7.296875 -5.828125 C 7.628906 -5.234375 8.066406 -4.753906 8.609375 -4.390625 C 9.160156 -4.023438 9.785156 -3.84375 10.484375 -3.84375 Z M 14.15625 -13.53125 L 14.15625 -15.421875 L 19.40625 -15.421875 L 19.40625 -0.03125 C 19.40625 1.644531 19.003906 3.144531 18.203125 4.46875 C 17.398438 5.800781 16.320312 6.847656 14.96875 7.609375 C 13.613281 8.367188 12.117188 8.75 10.484375 8.75 C 9.441406 8.75 8.398438 8.613281 7.359375 8.34375 C 6.328125 8.070312 5.375 7.660156 4.5 7.109375 C 3.625 6.566406 2.914062 5.863281 2.375 5 C 1.84375 4.132812 1.539062 3.117188 1.46875 1.953125 L 6.71875 1.953125 C 6.90625 2.867188 7.320312 3.582031 7.96875 4.09375 C 8.625 4.601562 9.367188 4.859375 10.203125 4.859375 C 10.972656 4.859375 11.65625 4.65625 12.25 4.25 C 12.84375 3.84375 13.304688 3.304688 13.640625 2.640625 C 13.984375 1.972656 14.15625 1.28125 14.15625 0.5625 L 14.15625 -1.890625 C 13.644531 -1.097656 12.878906 -0.523438 11.859375 -0.171875 C 10.847656 0.171875 9.851562 0.34375 8.875 0.34375 C 7.4375 0.34375 6.132812 -0.03125 4.96875 -0.78125 C 3.800781 -1.539062 2.882812 -2.53125 2.21875 -3.75 C 1.550781 -4.976562 1.21875 -6.304688 1.21875 -7.734375 C 1.21875 -9.148438 1.550781 -10.46875 2.21875 -11.6875 C 2.882812 -12.914062 3.800781 -13.898438 4.96875 -14.640625 C 6.132812 -15.390625 7.4375 -15.765625 8.875 -15.765625 C 9.851562 -15.765625 10.789062 -15.613281 11.6875 -15.3125 C 12.59375 -15.007812 13.414062 -14.414062 14.15625 -13.53125 Z M 14.15625 -13.53125 "/></g></g></g><g fill="#6c3baa" fill-opacity="1"><g transform="translate(570.722565, 241.93363)"><g/></g></g><g fill="#6c3baa" fill-opacity="1"><g transform="translate(579.464741, 241.93363)"><g><path d="M 8.359375 8.75 L 2.90625 8.75 L 6.40625 0 L 5.53125 0 L -0.34375 -15.421875 L 4.9375 -15.421875 L 8.609375 -4.40625 L 12.28125 -15.421875 L 17.59375 -15.421875 L 11.71875 0 Z M 8.359375 8.75 "/></g></g></g><g fill="#6c3baa" fill-opacity="1"><g transform="translate(596.70433, 241.93363)"><g><path d="M 10.03125 -3.640625 C 10.96875 -3.640625 11.691406 -3.835938 12.203125 -4.234375 C 12.710938 -4.628906 13.070312 -5.132812 13.28125 -5.75 C 13.5 -6.363281 13.609375 -7 13.609375 -7.65625 C 13.609375 -8.3125 13.492188 -8.941406 13.265625 -9.546875 C 13.046875 -10.148438 12.679688 -10.648438 12.171875 -11.046875 C 11.660156 -11.441406 10.945312 -11.640625 10.03125 -11.640625 C 9.125 -11.640625 8.40625 -11.441406 7.875 -11.046875 C 7.351562 -10.648438 6.984375 -10.148438 6.765625 -9.546875 C 6.546875 -8.941406 6.4375 -8.3125 6.4375 -7.65625 C 6.4375 -7 6.539062 -6.363281 6.75 -5.75 C 6.957031 -5.132812 7.320312 -4.628906 7.84375 -4.234375 C 8.375 -3.835938 9.101562 -3.640625 10.03125 -3.640625 Z M 10.03125 -15.734375 C 11.644531 -15.734375 13.113281 -15.394531 14.4375 -14.71875 C 15.769531 -14.039062 16.832031 -13.101562 17.625 -11.90625 C 18.414062 -10.707031 18.8125 -9.300781 18.8125 -7.6875 C 18.8125 -6.0625 18.421875 -4.644531 17.640625 -3.4375 C 16.859375 -2.238281 15.800781 -1.3125 14.46875 -0.65625 C 13.144531 -0.0078125 11.664062 0.3125 10.03125 0.3125 C 8.40625 0.3125 6.921875 -0.0078125 5.578125 -0.65625 C 4.234375 -1.3125 3.171875 -2.238281 2.390625 -3.4375 C 1.609375 -4.644531 1.21875 -6.0625 1.21875 -7.6875 C 1.21875 -9.300781 1.613281 -10.707031 2.40625 -11.90625 C 3.207031 -13.101562 4.273438 -14.039062 5.609375 -14.71875 C 6.953125 -15.394531 8.425781 -15.734375 10.03125 -15.734375 Z M 10.03125 -15.734375 "/></g></g></g><g fill="#6c3baa" fill-opacity="1"><g transform="translate(616.741388, 241.93363)"><g><path d="M 1.75 -6.640625 L 1.75 -15.421875 L 7 -15.421875 L 7 -6.640625 C 7 -5.753906 7.179688 -5.066406 7.546875 -4.578125 C 7.921875 -4.085938 8.519531 -3.84375 9.34375 -3.84375 C 10.15625 -3.84375 10.847656 -4.226562 11.421875 -5 C 11.992188 -5.769531 12.28125 -6.664062 12.28125 -7.6875 L 12.28125 -15.421875 L 17.515625 -15.421875 L 17.515625 0 L 12.28125 0 L 12.28125 -1.890625 C 11.757812 -1.234375 11.097656 -0.695312 10.296875 -0.28125 C 9.492188 0.132812 8.578125 0.34375 7.546875 0.34375 C 5.492188 0.34375 4.015625 -0.300781 3.109375 -1.59375 C 2.203125 -2.882812 1.75 -4.566406 1.75 -6.640625 Z M 1.75 -6.640625 "/></g></g></g><g fill="#6c3baa" fill-opacity="1"><g transform="translate(636.358819, 241.93363)"><g><path d="M 10.8125 -11.546875 C 10.15625 -11.546875 9.5625 -11.351562 9.03125 -10.96875 C 8.507812 -10.582031 8.097656 -10.097656 7.796875 -9.515625 C 7.492188 -8.929688 7.34375 -8.320312 7.34375 -7.6875 L 7.34375 0 L 2.09375 0 L 2.09375 -15.421875 L 7.34375 -15.421875 L 7.34375 -13.53125 C 7.738281 -14.113281 8.273438 -14.628906 8.953125 -15.078125 C 9.628906 -15.535156 10.445312 -15.765625 11.40625 -15.765625 C 11.632812 -15.765625 11.898438 -15.734375 12.203125 -15.671875 C 12.503906 -15.617188 12.757812 -15.535156 12.96875 -15.421875 L 12.96875 -10.671875 L 12.90625 -10.671875 C 12.644531 -10.992188 12.328125 -11.21875 11.953125 -11.34375 C 11.585938 -11.476562 11.207031 -11.546875 10.8125 -11.546875 Z M 10.8125 -11.546875 "/></g></g></g><g fill="#6c3baa" fill-opacity="1"><g transform="translate(649.681907, 241.93363)"><g/></g></g><g fill="#6c3baa" fill-opacity="1"><g transform="translate(658.424083, 241.93363)"><g><path d="M 8.21875 -26.234375 L 12.09375 -26.234375 L 12.09375 -22.140625 L 9.859375 -22.140625 C 9.328125 -22.140625 8.96875 -21.972656 8.78125 -21.640625 C 8.59375 -21.316406 8.5 -20.78125 8.5 -20.03125 L 8.5 -15.421875 L 12.09375 -15.421875 L 12.09375 -11.359375 L 8.5 -11.359375 L 8.5 0 L 3.25 0 L 3.25 -11.359375 L 1.046875 -11.359375 L 1.046875 -15.421875 L 3.25 -15.421875 L 3.25 -20.671875 C 3.25 -22.578125 3.726562 -23.976562 4.6875 -24.875 C 5.644531 -25.78125 6.820312 -26.234375 8.21875 -26.234375 Z M 8.21875 -26.234375 "/></g></g></g><g fill="#6c3baa" fill-opacity="1"><g transform="translate(671.117733, 241.93363)"><g><path d="M 1.8125 -20.703125 C 1.8125 -21.566406 2.109375 -22.296875 2.703125 -22.890625 C 3.304688 -23.484375 4.035156 -23.78125 4.890625 -23.78125 C 5.734375 -23.78125 6.457031 -23.484375 7.0625 -22.890625 C 7.664062 -22.296875 7.96875 -21.566406 7.96875 -20.703125 C 7.96875 -19.859375 7.664062 -19.132812 7.0625 -18.53125 C 6.457031 -17.925781 5.734375 -17.625 4.890625 -17.625 C 4.035156 -17.625 3.304688 -17.925781 2.703125 -18.53125 C 2.109375 -19.132812 1.8125 -19.859375 1.8125 -20.703125 Z M 7.515625 0 L 2.265625 0 L 2.265625 -15.421875 L 7.515625 -15.421875 Z M 7.515625 0 "/></g></g></g><g fill="#6c3baa" fill-opacity="1"><g transform="translate(680.908974, 241.93363)"><g><path d="M 17.875 -8.75 L 17.875 0 L 12.625 0 L 12.625 -8.75 C 12.625 -9.65625 12.4375 -10.347656 12.0625 -10.828125 C 11.6875 -11.304688 11.09375 -11.546875 10.28125 -11.546875 C 9.46875 -11.546875 8.773438 -11.164062 8.203125 -10.40625 C 7.628906 -9.644531 7.34375 -8.738281 7.34375 -7.6875 L 7.34375 0 L 2.09375 0 L 2.09375 -15.421875 L 7.34375 -15.421875 L 7.34375 -13.53125 C 7.875 -14.207031 8.539062 -14.75 9.34375 -15.15625 C 10.15625 -15.5625 11.0625 -15.765625 12.0625 -15.765625 C 14.132812 -15.765625 15.617188 -15.117188 16.515625 -13.828125 C 17.421875 -12.535156 17.875 -10.84375 17.875 -8.75 Z M 17.875 -8.75 "/></g></g></g><g fill="#6c3baa" fill-opacity="1"><g transform="translate(700.351565, 241.93363)"><g><path d="M 14.15625 -7.6875 C 14.15625 -8.363281 13.992188 -8.992188 13.671875 -9.578125 C 13.347656 -10.160156 12.910156 -10.632812 12.359375 -11 C 11.816406 -11.363281 11.191406 -11.546875 10.484375 -11.546875 C 9.785156 -11.546875 9.160156 -11.363281 8.609375 -11 C 8.066406 -10.632812 7.628906 -10.160156 7.296875 -9.578125 C 6.972656 -8.992188 6.8125 -8.363281 6.8125 -7.6875 C 6.8125 -7.007812 6.972656 -6.378906 7.296875 -5.796875 C 7.628906 -5.222656 8.066406 -4.753906 8.609375 -4.390625 C 9.160156 -4.023438 9.785156 -3.84375 10.484375 -3.84375 C 11.191406 -3.84375 11.816406 -4.023438 12.359375 -4.390625 C 12.910156 -4.753906 13.347656 -5.222656 13.671875 -5.796875 C 13.992188 -6.378906 14.15625 -7.007812 14.15625 -7.6875 Z M 19.40625 -15.390625 L 19.40625 0 L 14.15625 0 L 14.15625 -1.859375 C 13.644531 -1.066406 12.878906 -0.5 11.859375 -0.15625 C 10.847656 0.175781 9.851562 0.34375 8.875 0.34375 C 7.4375 0.34375 6.132812 -0.0234375 4.96875 -0.765625 C 3.800781 -1.515625 2.882812 -2.5 2.21875 -3.71875 C 1.550781 -4.945312 1.21875 -6.269531 1.21875 -7.6875 C 1.21875 -9.113281 1.550781 -10.4375 2.21875 -11.65625 C 2.882812 -12.882812 3.800781 -13.875 4.96875 -14.625 C 6.132812 -15.382812 7.4375 -15.765625 8.875 -15.765625 C 9.851562 -15.765625 10.804688 -15.601562 11.734375 -15.28125 C 12.671875 -14.957031 13.476562 -14.375 14.15625 -13.53125 L 14.15625 -15.390625 Z M 19.40625 -15.390625 "/></g></g></g><g fill="#6c3baa" fill-opacity="1"><g transform="translate(721.857335, 241.93363)"><g><path d="M 17.875 -8.75 L 17.875 0 L 12.625 0 L 12.625 -8.75 C 12.625 -9.65625 12.4375 -10.347656 12.0625 -10.828125 C 11.6875 -11.304688 11.09375 -11.546875 10.28125 -11.546875 C 9.46875 -11.546875 8.773438 -11.164062 8.203125 -10.40625 C 7.628906 -9.644531 7.34375 -8.738281 7.34375 -7.6875 L 7.34375 0 L 2.09375 0 L 2.09375 -15.421875 L 7.34375 -15.421875 L 7.34375 -13.53125 C 7.875 -14.207031 8.539062 -14.75 9.34375 -15.15625 C 10.15625 -15.5625 11.0625 -15.765625 12.0625 -15.765625 C 14.132812 -15.765625 15.617188 -15.117188 16.515625 -13.828125 C 17.421875 -12.535156 17.875 -10.84375 17.875 -8.75 Z M 17.875 -8.75 "/></g></g></g><g fill="#6c3baa" fill-opacity="1"><g transform="translate(741.299927, 241.93363)"><g><path d="M 9.96875 -11.671875 C 9.175781 -11.671875 8.550781 -11.457031 8.09375 -11.03125 C 7.632812 -10.601562 7.304688 -10.078125 7.109375 -9.453125 C 6.910156 -8.835938 6.8125 -8.238281 6.8125 -7.65625 C 6.8125 -7.070312 6.90625 -6.460938 7.09375 -5.828125 C 7.28125 -5.203125 7.601562 -4.679688 8.0625 -4.265625 C 8.519531 -3.847656 9.15625 -3.640625 9.96875 -3.640625 C 10.78125 -3.640625 11.46875 -3.8125 12.03125 -4.15625 C 12.59375 -4.507812 12.921875 -5.035156 13.015625 -5.734375 L 18.109375 -5.734375 C 17.953125 -4.585938 17.507812 -3.554688 16.78125 -2.640625 C 16.0625 -1.722656 15.109375 -0.992188 13.921875 -0.453125 C 12.734375 0.078125 11.359375 0.34375 9.796875 0.34375 C 8.023438 0.34375 6.492188 -0.0195312 5.203125 -0.75 C 3.921875 -1.488281 2.9375 -2.460938 2.25 -3.671875 C 1.5625 -4.878906 1.21875 -6.21875 1.21875 -7.6875 C 1.21875 -9.15625 1.570312 -10.5 2.28125 -11.71875 C 3 -12.945312 4.003906 -13.925781 5.296875 -14.65625 C 6.585938 -15.394531 8.085938 -15.765625 9.796875 -15.765625 C 11.472656 -15.765625 12.921875 -15.46875 14.140625 -14.875 C 15.367188 -14.28125 16.335938 -13.488281 17.046875 -12.5 C 17.753906 -11.507812 18.144531 -10.421875 18.21875 -9.234375 L 13.015625 -9.234375 C 12.984375 -9.972656 12.691406 -10.5625 12.140625 -11 C 11.597656 -11.445312 10.875 -11.671875 9.96875 -11.671875 Z M 9.96875 -11.671875 "/></g></g></g><g fill="#6c3baa" fill-opacity="1"><g transform="translate(760.602673, 241.93363)"><g><path d="M 1.8125 -20.703125 C 1.8125 -21.566406 2.109375 -22.296875 2.703125 -22.890625 C 3.304688 -23.484375 4.035156 -23.78125 4.890625 -23.78125 C 5.734375 -23.78125 6.457031 -23.484375 7.0625 -22.890625 C 7.664062 -22.296875 7.96875 -21.566406 7.96875 -20.703125 C 7.96875 -19.859375 7.664062 -19.132812 7.0625 -18.53125 C 6.457031 -17.925781 5.734375 -17.625 4.890625 -17.625 C 4.035156 -17.625 3.304688 -17.925781 2.703125 -18.53125 C 2.109375 -19.132812 1.8125 -19.859375 1.8125 -20.703125 Z M 7.515625 0 L 2.265625 0 L 2.265625 -15.421875 L 7.515625 -15.421875 Z M 7.515625 0 "/></g></g></g><g fill="#6c3baa" fill-opacity="1"><g transform="translate(770.393913, 241.93363)"><g><path d="M 14.15625 -7.6875 C 14.15625 -8.363281 13.992188 -8.992188 13.671875 -9.578125 C 13.347656 -10.160156 12.910156 -10.632812 12.359375 -11 C 11.816406 -11.363281 11.191406 -11.546875 10.484375 -11.546875 C 9.785156 -11.546875 9.160156 -11.363281 8.609375 -11 C 8.066406 -10.632812 7.628906 -10.160156 7.296875 -9.578125 C 6.972656 -8.992188 6.8125 -8.363281 6.8125 -7.6875 C 6.8125 -7.007812 6.972656 -6.378906 7.296875 -5.796875 C 7.628906 -5.222656 8.066406 -4.753906 8.609375 -4.390625 C 9.160156 -4.023438 9.785156 -3.84375 10.484375 -3.84375 C 11.191406 -3.84375 11.816406 -4.023438 12.359375 -4.390625 C 12.910156 -4.753906 13.347656 -5.222656 13.671875 -5.796875 C 13.992188 -6.378906 14.15625 -7.007812 14.15625 -7.6875 Z M 19.40625 -15.390625 L 19.40625 0 L 14.15625 0 L 14.15625 -1.859375 C 13.644531 -1.066406 12.878906 -0.5 11.859375 -0.15625 C 10.847656 0.175781 9.851562 0.34375 8.875 0.34375 C 7.4375 0.34375 6.132812 -0.0234375 4.96875 -0.765625 C 3.800781 -1.515625 2.882812 -2.5 2.21875 -3.71875 C 1.550781 -4.945312 1.21875 -6.269531 1.21875 -7.6875 C 1.21875 -9.113281 1.550781 -10.4375 2.21875 -11.65625 C 2.882812 -12.882812 3.800781 -13.875 4.96875 -14.625 C 6.132812 -15.382812 7.4375 -15.765625 8.875 -15.765625 C 9.851562 -15.765625 10.804688 -15.601562 11.734375 -15.28125 C 12.671875 -14.957031 13.476562 -14.375 14.15625 -13.53125 L 14.15625 -15.390625 Z M 19.40625 -15.390625 "/></g></g></g><g fill="#6c3baa" fill-opacity="1"><g transform="translate(791.899684, 241.93363)"><g><path d="M 7.34375 0 L 2.09375 0 L 2.09375 -26.234375 L 7.34375 -26.234375 Z M 7.34375 0 "/></g></g></g><g fill="#6c3baa" fill-opacity="1"><g transform="translate(801.341244, 241.93363)"><g/></g></g><g fill="#6c3baa" fill-opacity="1"><g transform="translate(810.083397, 241.93363)"><g><path d="M -0.84375 8.328125 L -0.84375 3.28125 C -0.84375 3.28125 -0.675781 3.375 -0.34375 3.5625 C -0.0195312 3.75 0.335938 3.84375 0.734375 3.84375 C 1.242188 3.84375 1.59375 3.695312 1.78125 3.40625 C 1.96875 3.113281 2.066406 2.742188 2.078125 2.296875 C 2.085938 1.859375 2.09375 1.429688 2.09375 1.015625 L 2.09375 -15.421875 L 7.6875 -15.421875 L 7.6875 1.15625 C 7.6875 2.414062 7.484375 3.628906 7.078125 4.796875 C 6.671875 5.960938 6.03125 6.910156 5.15625 7.640625 C 4.28125 8.378906 3.117188 8.75 1.671875 8.75 C 0.835938 8.75 0 8.609375 -0.84375 8.328125 Z M 1.8125 -20.703125 C 1.8125 -21.566406 2.113281 -22.296875 2.71875 -22.890625 C 3.332031 -23.484375 4.054688 -23.78125 4.890625 -23.78125 C 5.734375 -23.78125 6.457031 -23.484375 7.0625 -22.890625 C 7.664062 -22.296875 7.96875 -21.566406 7.96875 -20.703125 C 7.96875 -19.859375 7.664062 -19.132812 7.0625 -18.53125 C 6.457031 -17.925781 5.734375 -17.625 4.890625 -17.625 C 4.054688 -17.625 3.332031 -17.925781 2.71875 -18.53125 C 2.113281 -19.132812 1.8125 -19.859375 1.8125 -20.703125 Z M 1.8125 -20.703125 "/></g></g></g><g fill="#6c3baa" fill-opacity="1"><g transform="translate(819.874638, 241.93363)"><g><path d="M 10.03125 -3.640625 C 10.96875 -3.640625 11.691406 -3.835938 12.203125 -4.234375 C 12.710938 -4.628906 13.070312 -5.132812 13.28125 -5.75 C 13.5 -6.363281 13.609375 -7 13.609375 -7.65625 C 13.609375 -8.3125 13.492188 -8.941406 13.265625 -9.546875 C 13.046875 -10.148438 12.679688 -10.648438 12.171875 -11.046875 C 11.660156 -11.441406 10.945312 -11.640625 10.03125 -11.640625 C 9.125 -11.640625 8.40625 -11.441406 7.875 -11.046875 C 7.351562 -10.648438 6.984375 -10.148438 6.765625 -9.546875 C 6.546875 -8.941406 6.4375 -8.3125 6.4375 -7.65625 C 6.4375 -7 6.539062 -6.363281 6.75 -5.75 C 6.957031 -5.132812 7.320312 -4.628906 7.84375 -4.234375 C 8.375 -3.835938 9.101562 -3.640625 10.03125 -3.640625 Z M 10.03125 -15.734375 C 11.644531 -15.734375 13.113281 -15.394531 14.4375 -14.71875 C 15.769531 -14.039062 16.832031 -13.101562 17.625 -11.90625 C 18.414062 -10.707031 18.8125 -9.300781 18.8125 -7.6875 C 18.8125 -6.0625 18.421875 -4.644531 17.640625 -3.4375 C 16.859375 -2.238281 15.800781 -1.3125 14.46875 -0.65625 C 13.144531 -0.0078125 11.664062 0.3125 10.03125 0.3125 C 8.40625 0.3125 6.921875 -0.0078125 5.578125 -0.65625 C 4.234375 -1.3125 3.171875 -2.238281 2.390625 -3.4375 C 1.609375 -4.644531 1.21875 -6.0625 1.21875 -7.6875 C 1.21875 -9.300781 1.613281 -10.707031 2.40625 -11.90625 C 3.207031 -13.101562 4.273438 -14.039062 5.609375 -14.71875 C 6.953125 -15.394531 8.425781 -15.734375 10.03125 -15.734375 Z M 10.03125 -15.734375 "/></g></g></g><g fill="#6c3baa" fill-opacity="1"><g transform="translate(839.911695, 241.93363)"><g><path d="M 1.75 -6.640625 L 1.75 -15.421875 L 7 -15.421875 L 7 -6.640625 C 7 -5.753906 7.179688 -5.066406 7.546875 -4.578125 C 7.921875 -4.085938 8.519531 -3.84375 9.34375 -3.84375 C 10.15625 -3.84375 10.847656 -4.226562 11.421875 -5 C 11.992188 -5.769531 12.28125 -6.664062 12.28125 -7.6875 L 12.28125 -15.421875 L 17.515625 -15.421875 L 17.515625 0 L 12.28125 0 L 12.28125 -1.890625 C 11.757812 -1.234375 11.097656 -0.695312 10.296875 -0.28125 C 9.492188 0.132812 8.578125 0.34375 7.546875 0.34375 C 5.492188 0.34375 4.015625 -0.300781 3.109375 -1.59375 C 2.203125 -2.882812 1.75 -4.566406 1.75 -6.640625 Z M 1.75 -6.640625 "/></g></g></g><g fill="#6c3baa" fill-opacity="1"><g transform="translate(859.529127, 241.93363)"><g><path d="M 10.8125 -11.546875 C 10.15625 -11.546875 9.5625 -11.351562 9.03125 -10.96875 C 8.507812 -10.582031 8.097656 -10.097656 7.796875 -9.515625 C 7.492188 -8.929688 7.34375 -8.320312 7.34375 -7.6875 L 7.34375 0 L 2.09375 0 L 2.09375 -15.421875 L 7.34375 -15.421875 L 7.34375 -13.53125 C 7.738281 -14.113281 8.273438 -14.628906 8.953125 -15.078125 C 9.628906 -15.535156 10.445312 -15.765625 11.40625 -15.765625 C 11.632812 -15.765625 11.898438 -15.734375 12.203125 -15.671875 C 12.503906 -15.617188 12.757812 -15.535156 12.96875 -15.421875 L 12.96875 -10.671875 L 12.90625 -10.671875 C 12.644531 -10.992188 12.328125 -11.21875 11.953125 -11.34375 C 11.585938 -11.476562 11.207031 -11.546875 10.8125 -11.546875 Z M 10.8125 -11.546875 "/></g></g></g><g fill="#6c3baa" fill-opacity="1"><g transform="translate(872.852215, 241.93363)"><g><path d="M 17.875 -8.75 L 17.875 0 L 12.625 0 L 12.625 -8.75 C 12.625 -9.65625 12.4375 -10.347656 12.0625 -10.828125 C 11.6875 -11.304688 11.09375 -11.546875 10.28125 -11.546875 C 9.46875 -11.546875 8.773438 -11.164062 8.203125 -10.40625 C 7.628906 -9.644531 7.34375 -8.738281 7.34375 -7.6875 L 7.34375 0 L 2.09375 0 L 2.09375 -15.421875 L 7.34375 -15.421875 L 7.34375 -13.53125 C 7.875 -14.207031 8.539062 -14.75 9.34375 -15.15625 C 10.15625 -15.5625 11.0625 -15.765625 12.0625 -15.765625 C 14.132812 -15.765625 15.617188 -15.117188 16.515625 -13.828125 C 17.421875 -12.535156 17.875 -10.84375 17.875 -8.75 Z M 17.875 -8.75 "/></g></g></g><g fill="#6c3baa" fill-opacity="1"><g transform="translate(892.294806, 241.93363)"><g><path d="M 6.859375 -9.546875 L 13.75 -9.546875 C 13.75 -9.546875 13.71875 -9.691406 13.65625 -9.984375 C 13.59375 -10.273438 13.453125 -10.609375 13.234375 -10.984375 C 13.015625 -11.359375 12.671875 -11.6875 12.203125 -11.96875 C 11.734375 -12.257812 11.101562 -12.40625 10.3125 -12.40625 C 9.5 -12.40625 8.859375 -12.257812 8.390625 -11.96875 C 7.921875 -11.6875 7.578125 -11.359375 7.359375 -10.984375 C 7.140625 -10.609375 7 -10.273438 6.9375 -9.984375 C 6.882812 -9.691406 6.859375 -9.546875 6.859375 -9.546875 Z M 18.78125 -8.046875 C 18.78125 -7.878906 18.773438 -7.710938 18.765625 -7.546875 C 18.753906 -7.390625 18.75 -7.226562 18.75 -7.0625 L 6.78125 -7.0625 C 6.78125 -6.476562 6.914062 -5.898438 7.1875 -5.328125 C 7.457031 -4.753906 7.84375 -4.285156 8.34375 -3.921875 C 8.84375 -3.566406 9.429688 -3.390625 10.109375 -3.390625 C 11.035156 -3.390625 11.765625 -3.640625 12.296875 -4.140625 C 12.835938 -4.640625 13.117188 -5.171875 13.140625 -5.734375 L 18.5 -5.734375 C 18.050781 -3.703125 17.066406 -2.179688 15.546875 -1.171875 C 14.035156 -0.160156 12.253906 0.34375 10.203125 0.34375 C 8.429688 0.34375 6.867188 0.015625 5.515625 -0.640625 C 4.171875 -1.304688 3.117188 -2.238281 2.359375 -3.4375 C 1.597656 -4.644531 1.21875 -6.0625 1.21875 -7.6875 C 1.21875 -9.300781 1.609375 -10.710938 2.390625 -11.921875 C 3.171875 -13.140625 4.238281 -14.082031 5.59375 -14.75 C 6.945312 -15.425781 8.484375 -15.765625 10.203125 -15.765625 C 11.765625 -15.765625 13.191406 -15.460938 14.484375 -14.859375 C 15.785156 -14.253906 16.828125 -13.378906 17.609375 -12.234375 C 18.390625 -11.097656 18.78125 -9.703125 18.78125 -8.046875 Z M 18.78125 -8.046875 "/></g></g></g><g fill="#6c3baa" fill-opacity="1"><g transform="translate(912.296914, 241.93363)"><g><path d="M 8.359375 8.75 L 2.90625 8.75 L 6.40625 0 L 5.53125 0 L -0.34375 -15.421875 L 4.9375 -15.421875 L 8.609375 -4.40625 L 12.28125 -15.421875 L 17.59375 -15.421875 L 11.71875 0 Z M 8.359375 8.75 "/></g></g></g></svg>